<svg width="44" height="49" viewBox="0 0 44 49" fill="none" xmlns="http://www.w3.org/2000/svg">
<path d="M0.4375 0L0.625 2.1875L4.125 41.75L4.25 43.125L5.5625 43.5L21.4375 47.9375L21.9375 48.0625L22.5 47.9375L38.375 43.5625L39.6875 43.1875L39.8125 41.8125L43.375 2.1875L43.5625 0.0625H41.375L2.625 0H0.4375ZM4.8125 4L39.1875 4.0625L35.9375 40.0625L22 43.9375L8 40.0625L4.8125 4ZM9.625 10L10.9375 24.9375H28.0625L27.5 31.375L22 32.875H21.9375L16.4375 31.375L16.125 27.25H11.125L11.8125 35.1875L21.9375 38H22L32.125 35.1875L33.5 20H15.4375L15 14.9375H33.9375L34.375 10H9.625Z" fill="white"/>
</svg>
