<svg width="20" height="20" viewBox="0 0 20 20" fill="none" xmlns="http://www.w3.org/2000/svg">
<path fill-rule="evenodd" clip-rule="evenodd" d="M8.11695 6.26552C8.89487 5.86188 9.78025 5.7138 10.6472 5.84235C11.5315 5.97348 12.3501 6.38554 12.9823 7.01767C13.6144 7.6498 14.0265 8.46848 14.1576 9.35277C14.2861 10.2197 14.1381 11.1051 13.7344 11.883C13.3308 12.6609 12.6921 13.2917 11.9093 13.6858C11.1265 14.0798 10.2393 14.2169 9.37404 14.0777C8.50876 13.9385 7.70942 13.5299 7.08972 12.9102C6.47001 12.2905 6.06148 11.4912 5.92225 10.6259C5.78301 9.76064 5.92016 8.87349 6.31418 8.09066C6.7082 7.30783 7.33904 6.66917 8.11695 6.26552ZM10.4027 7.49099C9.88255 7.41386 9.35132 7.50271 8.88457 7.74489C8.41782 7.98708 8.03932 8.37028 7.80291 8.83998C7.56649 9.30968 7.4842 9.84196 7.56774 10.3611C7.65128 10.8803 7.8964 11.3599 8.26823 11.7317C8.64005 12.1035 9.11966 12.3487 9.63882 12.4322C10.158 12.5157 10.6903 12.4335 11.16 12.197C11.6297 11.9606 12.0129 11.5821 12.2551 11.1154C12.4972 10.6486 12.5861 10.1174 12.509 9.59724C12.4303 9.06667 12.183 8.57546 11.8038 8.19618C11.4245 7.81691 10.9333 7.56967 10.4027 7.49099Z" fill="#12F7D6"/>
<path d="M14.5833 4.58334C14.1231 4.58334 13.75 4.95644 13.75 5.41668C13.75 5.87691 14.1231 6.25001 14.5833 6.25001H14.5916C15.0519 6.25001 15.425 5.87691 15.425 5.41668C15.425 4.95644 15.0519 4.58334 14.5916 4.58334H14.5833Z" fill="#12F7D6"/>
<path fill-rule="evenodd" clip-rule="evenodd" d="M0.833313 5.83334C0.833313 3.07192 3.07189 0.833344 5.83331 0.833344H14.1666C16.9281 0.833344 19.1666 3.07192 19.1666 5.83334V14.1667C19.1666 16.9281 16.9281 19.1667 14.1666 19.1667H5.83331C3.07189 19.1667 0.833313 16.9281 0.833313 14.1667V5.83334ZM5.83331 2.50001C3.99236 2.50001 2.49998 3.99239 2.49998 5.83334V14.1667C2.49998 16.0076 3.99236 17.5 5.83331 17.5H14.1666C16.0076 17.5 17.5 16.0076 17.5 14.1667V5.83334C17.5 3.99239 16.0076 2.50001 14.1666 2.50001H5.83331Z" fill="#12F7D6"/>
</svg>
