<svg width="12" height="14" viewBox="0 0 12 14" fill="none" xmlns="http://www.w3.org/2000/svg">
<path fill-rule="evenodd" clip-rule="evenodd" d="M6.00002 3.5C4.71136 3.5 3.66669 4.54467 3.66669 5.83333C3.66669 7.122 4.71136 8.16667 6.00002 8.16667C7.28868 8.16667 8.33335 7.122 8.33335 5.83333C8.33335 4.54467 7.28868 3.5 6.00002 3.5ZM4.83335 5.83333C4.83335 5.189 5.35569 4.66667 6.00002 4.66667C6.64435 4.66667 7.16669 5.189 7.16669 5.83333C7.16669 6.47767 6.64435 7 6.00002 7C5.35569 7 4.83335 6.47767 4.83335 5.83333Z" fill="#12F7D6"/>
<path fill-rule="evenodd" clip-rule="evenodd" d="M5.67613 13.9018C5.6763 13.9019 5.67645 13.902 6.00002 13.4167L5.67613 13.9018C5.87207 14.0324 6.12765 14.0327 6.3236 13.902L6.00002 13.4167C6.3236 13.902 6.32343 13.9021 6.3236 13.902L6.32558 13.9007L6.32947 13.8981L6.34283 13.8891C6.35419 13.8813 6.37039 13.8703 6.39111 13.8559C6.43254 13.8272 6.49208 13.7854 6.56714 13.7312C6.7172 13.6228 6.92964 13.4646 7.18371 13.2623C7.69091 12.8584 8.36871 12.275 9.04849 11.5574C10.3842 10.1475 11.8334 8.10947 11.8334 5.83333C11.8334 4.28624 11.2188 2.80251 10.1248 1.70854C9.03085 0.614581 7.54712 0 6.00002 0C4.45292 0 2.96919 0.614581 1.87523 1.70854C0.781268 2.80251 0.166687 4.28624 0.166687 5.83333C0.166687 8.10947 1.61584 10.1475 2.95155 11.5574C3.63133 12.275 4.30913 12.8584 4.81633 13.2623C5.0704 13.4646 5.28284 13.6228 5.4329 13.7312C5.50796 13.7854 5.5675 13.8272 5.60893 13.8559C5.62965 13.8703 5.64585 13.8813 5.65721 13.8891L5.67057 13.8981L5.67446 13.9007L5.67613 13.9018ZM2.70019 2.5335C3.57536 1.65833 4.76234 1.16667 6.00002 1.16667C7.2377 1.16667 8.42468 1.65833 9.29985 2.5335C10.175 3.40867 10.6667 4.59566 10.6667 5.83333C10.6667 7.64053 9.49084 9.39415 8.20155 10.7551C7.56883 11.4229 6.93413 11.9697 6.45696 12.3497C6.27937 12.4911 6.12426 12.6089 6.00002 12.7007C5.87578 12.6089 5.72067 12.4911 5.54308 12.3497C5.06591 11.9697 4.43121 11.4229 3.79849 10.7551C2.5092 9.39415 1.33335 7.64053 1.33335 5.83333C1.33335 4.59566 1.82502 3.40867 2.70019 2.5335Z" fill="#12F7D6"/>
</svg>
