<svg width="14" height="12" viewBox="0 0 14 12" fill="none" xmlns="http://www.w3.org/2000/svg">
<path fill-rule="evenodd" clip-rule="evenodd" d="M0.583392 2.48988C0.583297 2.49564 0.583288 2.50139 0.583363 2.50715V9.5C0.583363 10.4638 1.36953 11.25 2.33336 11.25H11.6667C12.6305 11.25 13.4167 10.4638 13.4167 9.5V2.50721C13.4168 2.50141 13.4168 2.4956 13.4167 2.4898C13.4111 1.53063 12.6271 0.75 11.6667 0.75H2.33336C1.3729 0.75 0.58887 1.53067 0.583392 2.48988ZM1.8122 2.2398C1.90867 2.04904 2.10705 1.91667 2.33336 1.91667H11.6667C11.893 1.91667 12.0914 2.04904 12.1879 2.2398L7.00003 5.87128L1.8122 2.2398ZM12.25 3.62038V9.5C12.25 9.8195 11.9862 10.0833 11.6667 10.0833H2.33336C2.01386 10.0833 1.75003 9.8195 1.75003 9.5V3.62038L6.66551 7.06122C6.86636 7.20182 7.1337 7.20182 7.33455 7.06122L12.25 3.62038Z" fill="#12F7D6"/>
</svg>
