<svg width="22" height="30" viewBox="0 0 22 30" fill="none" xmlns="http://www.w3.org/2000/svg">
<path d="M11 21.6666C10.2636 21.6666 9.66668 22.2635 9.66668 22.9999C9.66668 23.7363 10.2636 24.3333 11 24.3333H11.0133C11.7497 24.3333 12.3467 23.7363 12.3467 22.9999C12.3467 22.2635 11.7497 21.6666 11.0133 21.6666H11Z" fill="#292F36"/>
<path fill-rule="evenodd" clip-rule="evenodd" d="M4.33334 0.333252C2.1242 0.333252 0.333344 2.12411 0.333344 4.33325V25.6666C0.333344 27.8757 2.1242 29.6666 4.33334 29.6666H17.6667C19.8758 29.6666 21.6667 27.8757 21.6667 25.6666V4.33325C21.6667 2.12411 19.8758 0.333252 17.6667 0.333252H4.33334ZM3.00001 4.33325C3.00001 3.59687 3.59696 2.99992 4.33334 2.99992H17.6667C18.4031 2.99992 19 3.59687 19 4.33325V25.6666C19 26.403 18.4031 26.9999 17.6667 26.9999H4.33334C3.59696 26.9999 3.00001 26.403 3.00001 25.6666V4.33325Z" fill="#292F36"/>
</svg>
