<svg width="30" height="28" viewBox="0 0 30 28" fill="none" xmlns="http://www.w3.org/2000/svg">
<path fill-rule="evenodd" clip-rule="evenodd" d="M16.3333 22.0001H25.6667C27.8758 22.0001 29.6667 20.2092 29.6667 18.0001V4.66675C29.6667 2.45761 27.8758 0.666748 25.6667 0.666748H4.33333C2.12419 0.666748 0.333328 2.45761 0.333328 4.66675V18.0001C0.333328 20.2092 2.12419 22.0001 4.33333 22.0001H13.6667V24.6667H9.66666C8.93028 24.6667 8.33333 25.2637 8.33333 26.0001C8.33333 26.7365 8.93028 27.3334 9.66666 27.3334H20.3333C21.0697 27.3334 21.6667 26.7365 21.6667 26.0001C21.6667 25.2637 21.0697 24.6667 20.3333 24.6667H16.3333V22.0001ZM4.33333 3.33341C3.59695 3.33341 2.99999 3.93037 2.99999 4.66675V18.0001C2.99999 18.7365 3.59695 19.3334 4.33333 19.3334H25.6667C26.403 19.3334 27 18.7365 27 18.0001V4.66675C27 3.93037 26.403 3.33341 25.6667 3.33341H4.33333Z" fill="#292F36"/>
</svg>
