<svg width="14" height="12" viewBox="0 0 14 12" fill="none" xmlns="http://www.w3.org/2000/svg">
<path fill-rule="evenodd" clip-rule="evenodd" d="M5.83331 0.166687C5.36918 0.166687 4.92407 0.351061 4.59588 0.67925C4.26769 1.00744 4.08331 1.45256 4.08331 1.91669V2.50002H2.33331C1.36681 2.50002 0.583313 3.28352 0.583313 4.25002V10.0834C0.583313 11.0499 1.36681 11.8334 2.33331 11.8334H11.6666C12.6331 11.8334 13.4166 11.0499 13.4166 10.0834V4.25002C13.4166 3.28352 12.6331 2.50002 11.6666 2.50002H9.91665V1.91669C9.91665 1.45256 9.73227 1.00744 9.40408 0.67925C9.0759 0.351061 8.63078 0.166687 8.16665 0.166687H5.83331ZM8.74998 2.50002V1.91669C8.74998 1.76198 8.68852 1.6136 8.57913 1.50421C8.46973 1.39481 8.32136 1.33335 8.16665 1.33335H5.83331C5.6786 1.33335 5.53023 1.39481 5.42083 1.50421C5.31144 1.6136 5.24998 1.76198 5.24998 1.91669V2.50002H8.74998ZM5.24998 3.66669H8.74998V10.6667H5.24998V3.66669ZM4.08331 3.66669H2.33331C2.01115 3.66669 1.74998 3.92785 1.74998 4.25002V10.0834C1.74998 10.4055 2.01115 10.6667 2.33331 10.6667H4.08331V3.66669ZM9.91665 10.6667V3.66669H11.6666C11.9888 3.66669 12.25 3.92785 12.25 4.25002V10.0834C12.25 10.4055 11.9888 10.6667 11.6666 10.6667H9.91665Z" fill="#12F7D6"/>
</svg>
